<?xml version="1.0" encoding="utf-8"?>
<?xml-stylesheet type="text/xsl" href="rss1.xsl"?>
<rss version="2.0" xmlns:atom="http://www.w3.org/2005/Atom" xmlns:content="http://purl.org/rss/1.0/modules/content/" xmlns:dc="http://purl.org/dc/elements/1.1/" xmlns:media="http://search.yahoo.com/mrss/">
<channel>
 <title>Getty</title>
 <link>http://www.gettyimg.com/</link>
 <atom:link href="http://www.gettyimg.com/" rel="self" type="application/rss+xml" />

 
                <item>
                <title><![CDATA[【HD Live Performances】HDTV - Rita Ora - Praising You [The Voice Australia 17 Sept 2023 7HD]1080i_DD2.0__azamusic]]></title>
                <link><![CDATA[https://sharemania.us/threads/rita-ora-praising-you-the-voice-australia-17-sept-2023-7hd-1080i_dd2-0__azamusic.228619/]]></link>
                <description><![CDATA[<article>
<blockquote class="messageText SelectQuoteContainer ugc baseHtml">
<span style="font-size: 15px"><span style="color: #0059b3"><b>Rita performed her new single 'Praising You' on The Voice Australia 17 Sept 2023.</b></span></span><br>
<br>
<div class="ToggleTriggerAnchor bbCodeSpoilerContainer">
<button type="button" class="button bbCodeSpoilerButton ToggleTrigger Tooltip JsOnly" data-target="> .SpoilerTarget"><span>Spoiler: <span class="SpoilerTitle">Media Info</span></span></button>
<div class="SpoilerTarget bbCodeSpoilerText">General<br>
ID : 1 (0x1)<br>
Complete name : \\192.168.1.1\data\aza\The_Voice\Rita Ora - Praising You [The Voice Australia 17 Sept 2023 7HD]_azamusic.ts<br>
Format : MPEG-TS<br>
File size : 173 MiB<br>
Duration : 4 min 1 s<br>
Overall bit rate mode : Variable<br>
Overall bit rate : 5 991 kb/s<br>
<br>
Video<br>
ID : 256 (0x100)<br>
Menu ID : 1 (0x1)<br>
Format : AVC<br>
Format/Info : Advanced Video Codec<br>
Format profile : High@L4<br>
Format settings : CABAC / 4 Ref Frames<br>
Format settings, CABAC : Yes<br>
Format settings, Reference fra : 4 frames<br>
Codec ID : 27<br>
Duration : 4 min 2 s<br>
Bit rate : 5 307 kb/s<br>
Width : 1 920 pixels<br>
Height : 1 080 pixels<br>
Display aspect ratio : 16:9<br>
Frame rate : 25.000 FPS<br>
Color space : YUV<br>
Chroma subsampling : 4:2:0<br>
Bit depth : 8 bits<br>
Scan type : MBAFF<br>
Scan type, store method : Interleaved fields<br>
Scan order : Top Field First<br>
Bits/(Pixel*Frame) : 0.102<br>
Stream size : 153 MiB (89%)<br>
Color range : Limited<br>
<br>
Audio<br>
ID : 257 (0x101)<br>
Menu ID : 1 (0x1)<br>
Format : AC-3<br>
Format/Info : Audio Coding 3<br>
Commercial name : Dolby Digital<br>
Codec ID : 129<br>
Duration : 4 min 2 s<br>
Bit rate mode : Constant<br>
Bit rate : 384 kb/s<br>
Channel(s) : 2 channels<br>
Channel layout : L R<br>
Sampling rate : 48.0 kHz<br>
Frame rate : 31.250 FPS (1536 SPF)<br>
Compression mode : Lossy<br>
Delay relative to video : -149 ms<br>
Stream size : 11.1 MiB (6%)<br>
Language : English<br>
Service kind : Complete Main<br>
<br>
Menu<br>
ID : 4096 (0x1000)<br>
Menu ID : 1 (0x1)<br>
Format : AVC / AC-3<br>
Duration : 4 min 1 s<br>
List : 256 (0x100) (AVC) / 257 (0x101) (AC-3, English)<br>
Language : / English<br>
Service name : Service01<br>
Service provider : FFmpeg<br>
Service type : digital television</div>
</div><b>
<div class="bbCodeBlock bbCodeVfcHH HiddenContent">
<div class="attribution type">Hidden Content:</div>
<blockquote>You must reply before you can see the hidden data contained here.</blockquote>
</div></b><br>
<br>
<img src="https://www.aaronsouth.com/azamusic/rita_py_voiceau2023.png" class="bbCodeImage LbImage" alt="[​IMG]" data-url="https://www.aaronsouth.com/azamusic/rita_py_voiceau2023.png" style="">
<div class="messageTextEndMarker">&nbsp;</div>
</blockquote>
</article>]]></description>
                <author><![CDATA[azamusic]]></author>
                </item>

                </channel></rss>